<svg width="22" height="20" viewBox="0 0 22 20" fill="none" xmlns="http://www.w3.org/2000/svg">
<path d="M13.7892 7.42857C14.3006 7.42857 14.7912 7.63176 15.1529 7.99343C15.5145 8.35511 15.7177 8.84565 15.7177 9.35714V14.7134C15.7177 15.964 15.221 17.1633 14.3367 18.0475C13.4524 18.9318 12.2531 19.4286 11.0026 19.4286C9.75205 19.4286 8.55273 18.9318 7.66847 18.0475C6.78421 17.1633 6.28744 15.964 6.28744 14.7134V9.35714C6.28744 8.84565 6.49063 8.35511 6.8523 7.99343C7.21398 7.63176 7.70452 7.42857 8.21601 7.42857H13.7892ZM13.7892 8.71428H8.21601C8.04551 8.71428 7.882 8.78201 7.76144 8.90257C7.64088 9.02313 7.57315 9.18664 7.57315 9.35714V14.7134C7.57315 15.623 7.93446 16.4953 8.57761 17.1384C9.22075 17.7815 10.093 18.1429 11.0026 18.1429C11.9121 18.1429 12.7844 17.7815 13.4276 17.1384C14.0707 16.4953 14.432 15.623 14.432 14.7134V9.35714C14.432 9.18664 14.3643 9.02313 14.2437 8.90257C14.1232 8.78201 13.9596 8.71428 13.7892 8.71428ZM2.64287 7.42857H6.20515C5.86103 7.78686 5.61921 8.23083 5.50487 8.71428H2.64287C2.47237 8.71428 2.30886 8.78201 2.1883 8.90257C2.06774 9.02313 2.00001 9.18664 2.00001 9.35714V13.8563C1.99989 14.2864 2.10761 14.7096 2.31332 15.0873C2.51902 15.465 2.81614 15.7851 3.1775 16.0183C3.53886 16.2515 3.95292 16.3903 4.38181 16.4222C4.81071 16.454 5.24074 16.3778 5.63258 16.2006C5.74658 16.6206 5.9103 17.02 6.11601 17.3937C5.52875 17.6501 4.88688 17.7562 4.24835 17.7024C3.60983 17.6486 2.99476 17.4366 2.45869 17.0855C1.92262 16.7345 1.48243 16.2554 1.17788 15.6916C0.873331 15.1278 0.714006 14.4971 0.714295 13.8563V9.35714C0.714295 8.84565 0.917483 8.35511 1.27916 7.99343C1.64084 7.63176 2.13138 7.42857 2.64287 7.42857ZM19.3572 7.42857C19.8686 7.42857 20.3592 7.63176 20.7209 7.99343C21.0825 8.35511 21.2857 8.84565 21.2857 9.35714V13.8571C21.286 14.4976 21.1268 15.128 20.8225 15.6915C20.5182 16.255 20.0783 16.7339 19.5427 17.0849C19.007 17.4359 18.3924 17.648 17.7542 17.7021C17.1161 17.7561 16.4745 17.6505 15.8874 17.3946L15.9354 17.3071C16.1189 16.9591 16.2672 16.5897 16.3734 16.2023C16.7651 16.3785 17.1946 16.4538 17.6228 16.4214C18.051 16.389 18.4643 16.2498 18.8249 16.0166C19.1855 15.7834 19.482 15.4636 19.6872 15.0864C19.8925 14.7092 20 14.2866 20 13.8571V9.35714C20 9.18679 19.9324 9.02341 19.812 8.90287C19.6917 8.78234 19.5284 8.71451 19.358 8.71428H16.5012C16.3866 8.23073 16.1445 7.78674 15.8 7.42857H19.358H19.3572ZM11 0.571426C11.394 0.571426 11.7841 0.649024 12.1481 0.799788C12.512 0.950552 12.8428 1.17153 13.1213 1.45011C13.3999 1.72868 13.6209 2.0594 13.7716 2.42338C13.9224 2.78735 14 3.17746 14 3.57143C14 3.96539 13.9224 4.3555 13.7716 4.71948C13.6209 5.08345 13.3999 5.41417 13.1213 5.69275C12.8428 5.97132 12.512 6.1923 12.1481 6.34307C11.7841 6.49383 11.394 6.57143 11 6.57143C10.2044 6.57143 9.4413 6.25536 8.87869 5.69275C8.31608 5.13014 8.00001 4.36708 8.00001 3.57143C8.00001 2.77578 8.31608 2.01272 8.87869 1.45011C9.4413 0.887497 10.2044 0.571426 11 0.571426ZM17.8597 1.42857C18.1974 1.42857 18.5318 1.49508 18.8438 1.62431C19.1557 1.75353 19.4392 1.94294 19.678 2.18172C19.9168 2.4205 20.1062 2.70397 20.2354 3.01595C20.3646 3.32793 20.4312 3.66231 20.4312 4C20.4312 4.33768 20.3646 4.67206 20.2354 4.98404C20.1062 5.29602 19.9168 5.57949 19.678 5.81827C19.4392 6.05705 19.1557 6.24646 18.8438 6.37569C18.5318 6.50491 18.1974 6.57143 17.8597 6.57143C17.1777 6.57143 16.5237 6.30051 16.0414 5.81827C15.5592 5.33604 15.2883 4.68198 15.2883 4C15.2883 3.31801 15.5592 2.66396 16.0414 2.18172C16.5237 1.69949 17.1777 1.42857 17.8597 1.42857ZM4.1403 1.42857C4.47798 1.42857 4.81236 1.49508 5.12434 1.62431C5.43632 1.75353 5.71979 1.94294 5.95857 2.18172C6.19735 2.4205 6.38676 2.70397 6.51599 3.01595C6.64521 3.32793 6.71172 3.66231 6.71172 4C6.71172 4.33768 6.64521 4.67206 6.51599 4.98404C6.38676 5.29602 6.19735 5.57949 5.95857 5.81827C5.71979 6.05705 5.43632 6.24646 5.12434 6.37569C4.81236 6.50491 4.47798 6.57143 4.1403 6.57143C3.45831 6.57143 2.80426 6.30051 2.32202 5.81827C1.83978 5.33604 1.56887 4.68198 1.56887 4C1.56887 3.31801 1.83978 2.66396 2.32202 2.18172C2.80426 1.69949 3.45831 1.42857 4.1403 1.42857ZM11 1.85714C10.5454 1.85714 10.1093 2.03775 9.78783 2.35924C9.46634 2.68073 9.28572 3.11677 9.28572 3.57143C9.28572 4.02608 9.46634 4.46212 9.78783 4.78361C10.1093 5.1051 10.5454 5.28571 11 5.28571C11.4547 5.28571 11.8907 5.1051 12.2122 4.78361C12.5337 4.46212 12.7143 4.02608 12.7143 3.57143C12.7143 3.11677 12.5337 2.68073 12.2122 2.35924C11.8907 2.03775 11.4547 1.85714 11 1.85714ZM17.8597 2.71428C17.6909 2.71428 17.5237 2.74754 17.3677 2.81215C17.2117 2.87677 17.07 2.97147 16.9506 3.09086C16.8312 3.21025 16.7365 3.35199 16.6719 3.50798C16.6073 3.66397 16.574 3.83116 16.574 4C16.574 4.16884 16.6073 4.33603 16.6719 4.49202C16.7365 4.64801 16.8312 4.78975 16.9506 4.90914C17.07 5.02852 17.2117 5.12323 17.3677 5.18784C17.5237 5.25246 17.6909 5.28571 17.8597 5.28571C18.2007 5.28571 18.5277 5.15025 18.7689 4.90914C19.01 4.66802 19.1454 4.34099 19.1454 4C19.1454 3.65901 19.01 3.33198 18.7689 3.09086C18.5277 2.84974 18.2007 2.71428 17.8597 2.71428ZM4.1403 2.71428C3.97145 2.71428 3.80426 2.74754 3.64827 2.81215C3.49228 2.87677 3.35055 2.97147 3.23116 3.09086C3.11177 3.21025 3.01706 3.35199 2.95245 3.50798C2.88784 3.66397 2.85458 3.83116 2.85458 4C2.85458 4.16884 2.88784 4.33603 2.95245 4.49202C3.01706 4.64801 3.11177 4.78975 3.23116 4.90914C3.35055 5.02852 3.49228 5.12323 3.64827 5.18784C3.80426 5.25246 3.97145 5.28571 4.1403 5.28571C4.48129 5.28571 4.80831 5.15025 5.04943 4.90914C5.29055 4.66802 5.42601 4.34099 5.42601 4C5.42601 3.65901 5.29055 3.33198 5.04943 3.09086C4.80831 2.84974 4.48129 2.71428 4.1403 2.71428Z" fill="url(#paint0_linear_12_26)"/>
<defs>
<linearGradient id="paint0_linear_12_26" x1="1.921" y1="0.571427" x2="21.9314" y2="1.19797" gradientUnits="userSpaceOnUse">
<stop stop-color="#E1AF33"/>
<stop offset="1" stop-color="#FDFB51"/>
</linearGradient>
</defs>
</svg>
