<svg width="18" height="18" viewBox="0 0 18 18" fill="none" xmlns="http://www.w3.org/2000/svg">
<path d="M6.74997 -4.15067e-06V1.6875C8.00597 1.68501 9.25005 1.93115 10.4105 2.41173C11.5709 2.89232 12.6248 3.59784 13.5112 4.48762C14.4004 5.37455 15.1056 6.42846 15.5861 7.58879C16.0666 8.74911 16.3131 9.99297 16.3114 11.2489H17.9989C17.9989 5.0355 12.9622 -0.00112915 6.74884 -0.00112915L6.74997 -4.15067e-06Z" fill="url(#paint0_linear_28_9)"/>
<path d="M6.75 3.375V5.0625C8.40262 5.0625 9.95625 5.706 11.1251 6.87488C12.294 8.04375 12.9375 9.59737 12.9375 11.25H14.625C14.625 9.16142 13.7953 7.15838 12.3185 5.68153C10.8416 4.20469 8.83858 3.375 6.75 3.375Z" fill="url(#paint1_linear_28_9)"/>
<path d="M8.4375 6.75L7.3125 7.875L3.375 9L0 16.3125L0.4455 16.758L4.53825 12.6652C4.47413 12.426 4.49074 12.1723 4.5855 11.9435C4.68026 11.7147 4.84788 11.5236 5.06235 11.3997C5.27682 11.2759 5.52617 11.2263 5.77171 11.2586C6.01725 11.2909 6.24526 11.4034 6.42039 11.5785C6.59551 11.7536 6.70795 11.9816 6.74027 12.2272C6.77259 12.4727 6.72298 12.722 6.59914 12.9365C6.47531 13.151 6.28416 13.3186 6.05534 13.4134C5.82653 13.5081 5.57284 13.5247 5.33363 13.4606L1.24088 17.5534L1.68637 17.9989L8.99887 14.6239L10.1239 10.6864L11.2489 9.56137L8.43637 6.74887L8.4375 6.75Z" fill="url(#paint2_linear_28_9)"/>
<defs>
<linearGradient id="paint0_linear_28_9" x1="7.40876" y1="-0.00112844" x2="18.3537" y2="0.313009" gradientUnits="userSpaceOnUse">
<stop stop-color="#E1AF33"/>
<stop offset="1" stop-color="#FDFB51"/>
</linearGradient>
<linearGradient id="paint1_linear_28_9" x1="7.21194" y1="3.375" x2="14.8734" y2="3.5949" gradientUnits="userSpaceOnUse">
<stop stop-color="#E1AF33"/>
<stop offset="1" stop-color="#FDFB51"/>
</linearGradient>
<linearGradient id="paint2_linear_28_9" x1="0.65985" y1="6.74887" x2="11.6037" y2="7.06295" gradientUnits="userSpaceOnUse">
<stop stop-color="#E1AF33"/>
<stop offset="1" stop-color="#FDFB51"/>
</linearGradient>
</defs>
</svg>
