<svg width="16" height="16" viewBox="0 0 16 16" fill="none" xmlns="http://www.w3.org/2000/svg">
<path d="M9.39388 1.59462C9.4517 1.37846 9.59301 1.1941 9.78673 1.08211C9.98045 0.970108 10.2107 0.939635 10.4269 0.997388C11.5237 1.29229 12.5237 1.87023 13.3267 2.6733C14.1298 3.47636 14.7077 4.47636 15.0026 5.57311C15.0312 5.68016 15.0385 5.79179 15.024 5.90164C15.0094 6.01149 14.9734 6.1174 14.918 6.21332C14.8625 6.30925 14.7887 6.39331 14.7007 6.46071C14.6128 6.52811 14.5124 6.57753 14.4054 6.60615C14.2984 6.63476 14.1867 6.64201 14.0769 6.62748C13.967 6.61296 13.8611 6.57693 13.7652 6.52148C13.6693 6.46602 13.5852 6.39221 13.5178 6.30426C13.4504 6.21632 13.401 6.11596 13.3724 6.00891C13.1545 5.19845 12.7274 4.45947 12.134 3.86603C11.5405 3.27258 10.8016 2.84551 9.99111 2.62758C9.77495 2.56979 9.5906 2.42851 9.4786 2.23481C9.3666 2.04111 9.33613 1.81086 9.39388 1.59469V1.59462ZM15.5603 11.3456C15.4294 12.3635 14.9325 13.2989 14.1623 13.9772C13.3921 14.6555 12.4013 15.0302 11.375 15.0313C5.63701 15.0313 0.96875 10.363 0.96875 4.62502C0.969855 3.59873 1.34454 2.60794 2.02281 1.83774C2.70108 1.06753 3.63655 0.570589 4.65446 0.439739C4.95676 0.403241 5.26275 0.465523 5.52673 0.617281C5.7907 0.76904 5.9985 1.00213 6.11907 1.28173L7.53165 4.57784C7.62328 4.79095 7.66064 5.02345 7.64041 5.25454C7.62018 5.48563 7.54297 5.70809 7.4157 5.90204L6.33528 7.55297C6.81643 8.45841 7.55919 9.19791 8.46673 9.67508L10.0908 8.59212C10.2853 8.46197 10.5092 8.38257 10.7422 8.36115C10.9753 8.33973 11.2099 8.37698 11.4249 8.4695L14.7182 9.88095C14.9979 10.0014 15.2311 10.2092 15.3829 10.4732C15.5347 10.7372 15.5969 11.0432 15.5603 11.3456ZM13.8504 11.3449L10.9003 10.0806L9.26675 11.1698C9.06425 11.305 8.83009 11.3853 8.58723 11.4028C8.34437 11.4202 8.10114 11.3743 7.88138 11.2694C6.51624 10.6079 5.41179 9.50845 4.74404 8.14634C4.63873 7.92789 4.59167 7.68593 4.60744 7.44393C4.62321 7.20194 4.70127 6.96813 4.83404 6.76519L5.92128 5.10399L4.65509 2.14967C4.08938 2.27207 3.58259 2.58438 3.21896 3.0347C2.85533 3.48502 2.65676 4.04622 2.65625 4.62502C2.65886 6.93658 3.57827 9.15271 5.21279 10.7872C6.84731 12.4217 9.06344 13.3412 11.375 13.3438C11.9538 13.3432 12.515 13.1447 12.9653 12.781C13.4156 12.4174 13.7279 11.9106 13.8504 11.3449ZM9.23933 5.29088C9.58444 5.39967 9.89822 5.59007 10.1541 5.84593C10.41 6.1018 10.6004 6.41559 10.7091 6.76069C10.7763 6.97415 10.9256 7.15216 11.124 7.25558C11.2223 7.30679 11.3297 7.33814 11.4401 7.34785C11.5504 7.35756 11.6617 7.34543 11.7673 7.31215C11.873 7.27888 11.9711 7.22512 12.0561 7.15393C12.141 7.08274 12.211 6.99553 12.2622 6.89726C12.3134 6.799 12.3448 6.69161 12.3545 6.58123C12.3642 6.47085 12.3521 6.35964 12.3188 6.25395C12.1284 5.64989 11.7951 5.10065 11.3472 4.65279C10.8994 4.20493 10.3501 3.87166 9.74607 3.68122C9.64038 3.64794 9.52917 3.63581 9.41879 3.64552C9.30841 3.65523 9.20102 3.68658 9.10276 3.73779C8.90431 3.8412 8.75507 4.01922 8.68787 4.23268C8.62067 4.44613 8.64102 4.67754 8.74444 4.87599C8.84786 5.07444 9.02587 5.22368 9.23933 5.29088Z" fill="url(#paint0_linear_12_44)"/>
<defs>
<linearGradient id="paint0_linear_12_44" x1="1.82528" y1="0.429566" x2="16.0311" y2="0.837299" gradientUnits="userSpaceOnUse">
<stop stop-color="#E1AF33"/>
<stop offset="1" stop-color="#FDFB51"/>
</linearGradient>
</defs>
</svg>
