<svg width="24" height="24" viewBox="0 0 24 24" fill="none" xmlns="http://www.w3.org/2000/svg">
<path d="M3 10.26V19C3 19.7957 3.31607 20.5587 3.87868 21.1213C4.44129 21.6839 5.20435 22 6 22H18C18.7956 22 19.5587 21.6839 20.1213 21.1213C20.6839 20.5587 21 19.7957 21 19V10.25C21.0019 9.82557 20.9138 9.40555 20.7414 9.01769C20.5691 8.62983 20.3163 8.28296 20 8.00001L3 10.26ZM19.6666 8.37269C19.6672 8.37321 19.6678 8.37372 19.6684 8.37424C19.9312 8.60975 20.1412 8.89825 20.2845 9.22076C20.4282 9.54397 20.5016 9.89399 20.5 10.2477V10.25V19C20.5 19.663 20.2366 20.2989 19.7677 20.7678C19.2989 21.2366 18.663 21.5 18 21.5H6C5.33696 21.5 4.70108 21.2366 4.23224 20.7678C3.7634 20.2989 3.5 19.663 3.5 19V10.26H3.50002L3.49999 10.256C3.49716 9.90093 3.57002 9.54931 3.71371 9.22457C3.85709 8.90054 4.0677 8.61071 4.33157 8.37426L10.3296 3.11598V3.116L10.3333 3.11268C10.7917 2.70272 11.385 2.47607 12 2.47607C12.6149 2.47607 13.2083 2.70272 13.6666 3.11268V3.1127L13.6704 3.11598L19.6666 8.37269ZM14 20.5H14.5V20V15C14.5 14.6022 14.3419 14.2207 14.0606 13.9393C13.7793 13.658 13.3978 13.5 13 13.5H11C10.6021 13.5 10.2206 13.658 9.93934 13.9393C9.65804 14.2207 9.5 14.6022 9.5 15V20V20.5H10H14ZM15.5 20V20.5H16H18C18.3978 20.5 18.7793 20.342 19.0606 20.0607C19.3419 19.7794 19.5 19.3978 19.5 19V10.25V10.2494C19.4997 10.0364 19.4541 9.82591 19.3661 9.63194C19.2782 9.43797 19.15 9.26494 18.99 9.12437L18.9892 9.12372L12.99 3.87437C12.9898 3.87425 12.9897 3.87413 12.9896 3.87401C12.7159 3.63376 12.3642 3.50127 12 3.50127C11.6358 3.50127 11.2841 3.63376 11.0104 3.87401C11.0102 3.87413 11.0101 3.87425 11.01 3.87437L5.01075 9.12372L5.01 9.12437C4.85 9.26494 4.72176 9.43797 4.63383 9.63194C4.54589 9.82592 4.50027 10.0364 4.5 10.2494V10.25V19C4.5 19.3978 4.65804 19.7794 4.93934 20.0607C5.22065 20.342 5.60218 20.5 6 20.5H8H8.5V20V15C8.5 14.337 8.76339 13.7011 9.23224 13.2322C9.70108 12.7634 10.3369 12.5 11 12.5H13C13.663 12.5 14.2989 12.7634 14.7677 13.2322C15.2366 13.7011 15.5 14.337 15.5 15V20Z" stroke="url(#paint0_linear_28_6)"/>
<defs>
<linearGradient id="paint0_linear_28_6" x1="4.05578" y1="1.97608" x2="21.5705" y2="2.42797" gradientUnits="userSpaceOnUse">
<stop stop-color="#E1AF33"/>
<stop offset="1" stop-color="#FDFB51"/>
</linearGradient>
</defs>
</svg>
