<svg width="50" height="50" viewBox="0 0 50 50" fill="none" xmlns="http://www.w3.org/2000/svg">
<path d="M25 29.1667C27.3012 29.1667 29.1666 27.3012 29.1666 25C29.1666 22.6988 27.3012 20.8333 25 20.8333C22.6988 20.8333 20.8333 22.6988 20.8333 25C20.8333 27.3012 22.6988 29.1667 25 29.1667Z" fill="url(#paint0_linear_28_2)"/>
<path d="M16.1625 33.8396L19.1083 30.8917C18.3305 30.1195 17.714 29.2005 17.2944 28.188C16.8749 27.1755 16.6608 26.0897 16.6646 24.9937C16.6646 22.7687 17.5333 20.6792 19.1083 19.1083L16.1625 16.1583C14.9974 17.315 14.0734 18.6913 13.444 20.2076C12.8147 21.7239 12.4924 23.35 12.4958 24.9917C12.4958 28.3333 13.7979 31.475 16.1625 33.8396ZM33.8375 33.8396C35.0023 32.6816 35.9257 31.3041 36.5544 29.7867C37.1831 28.2694 37.5045 26.6424 37.5 25C37.5045 23.3576 37.1831 21.7306 36.5544 20.2133C35.9257 18.6959 35.0023 17.3184 33.8375 16.1604L30.8917 19.1062C32.4667 20.6812 33.3333 22.775 33.3333 25C33.3333 27.225 32.4667 29.3187 30.8917 30.8937L33.8375 33.8396Z" fill="url(#paint1_linear_28_2)"/>
<path d="M13.2167 36.7854C11.6635 35.2408 10.4319 33.4035 9.59337 31.3799C8.7548 29.3562 8.32583 27.1863 8.33128 24.9958C8.33128 20.5438 10.0667 16.3604 13.2167 13.2167L10.2709 10.2687C6.33336 14.1979 4.16461 19.4292 4.16461 24.9958C4.16461 30.5625 6.33336 35.7937 10.2709 39.7313L13.2167 36.7854ZM36.7854 13.2146C38.3379 14.7587 39.5687 16.5954 40.4065 18.6184C41.2444 20.6413 41.6727 22.8104 41.6667 25C41.6727 27.1896 41.2444 29.3587 40.4065 31.3816C39.5687 33.4046 38.3379 35.2413 36.7854 36.7854L39.7313 39.7313C41.6721 37.8014 43.2109 35.5057 44.2583 32.977C45.3057 30.4484 45.8411 27.737 45.8334 25C45.8409 22.263 45.3054 19.5518 44.258 17.0231C43.2106 14.4945 41.672 12.1987 39.7313 10.2687L36.7854 13.2146Z" fill="url(#paint2_linear_28_2)"/>
<defs>
<linearGradient id="paint0_linear_28_2" x1="21.3221" y1="20.8333" x2="29.4295" y2="21.066" gradientUnits="userSpaceOnUse">
<stop stop-color="#E1AF33"/>
<stop offset="1" stop-color="#FDFB51"/>
</linearGradient>
<linearGradient id="paint1_linear_28_2" x1="13.9625" y1="16.1583" x2="38.2686" y2="17.1449" gradientUnits="userSpaceOnUse">
<stop stop-color="#E1AF33"/>
<stop offset="1" stop-color="#FDFB51"/>
</linearGradient>
<linearGradient id="paint2_linear_28_2" x1="6.60887" y1="10.2688" x2="47.1143" y2="11.913" gradientUnits="userSpaceOnUse">
<stop stop-color="#E1AF33"/>
<stop offset="1" stop-color="#FDFB51"/>
</linearGradient>
</defs>
</svg>
